HIERARCHY
ROOT Hips
{
  OFFSET 5.84602e-005 68.8428 3.50346
  CHANNELS 6 Xposition Yposition Zposition Zrotation Xrotation Yrotation
  JOINT Spine
  {
    OFFSET 0 8.597 -4.6522
    CHANNELS 3 Zrotation Xrotation Yrotation
    JOINT Spine1
    {
      OFFSET 0 7.8454 0.4098
      CHANNELS 3 Zrotation Xrotation Yrotation
      JOINT Spine2
      {
        OFFSET 0 9.7078 -2.1609
        CHANNELS 3 Zrotation Xrotation Yrotation
        JOINT Neck
        {
          OFFSET 0 21.8761 -0.4549
          CHANNELS 3 Zrotation Xrotation Yrotation
          JOINT Head
          {
            OFFSET 0 12.3537 3.3602
            CHANNELS 3 Zrotation Xrotation Yrotation
            End Site
            {
              OFFSET 0.0001 18.9506 0.5657
            }
          }
        }
        JOINT LeftShoulder
        {
          OFFSET 2.2086 21.1115 7.2329
          CHANNELS 3 Zrotation Xrotation Yrotation
          JOINT LeftArm
          {
            OFFSET 13.1193 3.0282 -4.8998
            CHANNELS 3 Zrotation Xrotation Yrotation
            JOINT LeftForeArm
            {
              OFFSET 27.4081 -0.0973053 -0.2375
              CHANNELS 3 Zrotation Xrotation Yrotation
              JOINT LeftHand
              {
                OFFSET 22.8641 0.0662994 -0.1369
                CHANNELS 3 Zrotation Xrotation Yrotation
                JOINT LeftHandIndex1
                {
                  OFFSET 8.8614 0.775009 2.4612
                  CHANNELS 3 Zrotation Xrotation Yrotation
                  JOINT LeftHandIndex2
                  {
                    OFFSET 3.3146 -0.808304 0.5841
                    CHANNELS 3 Zrotation Xrotation Yrotation
                    JOINT LeftHandIndex3
                    {
                      OFFSET 2.2628 -0.552002 0.3989
                      CHANNELS 3 Zrotation Xrotation Yrotation
                      End Site
                      {
                        OFFSET 1.6102 -0.4807 0.2612
                      }
                    }
                  }
                }
                JOINT LeftHandMiddle1
                {
                  OFFSET 8.9937 0.895004 0.2143
                  CHANNELS 3 Zrotation Xrotation Yrotation
                  JOINT LeftHandMiddle2
                  {
                    OFFSET 4.0984 0.0113983 -0.0242
                    CHANNELS 3 Zrotation Xrotation Yrotation
                    JOINT LeftHandMiddle3
                    {
                      OFFSET 2.2716 0.00689697 -0.0138001
                      CHANNELS 3 Zrotation Xrotation Yrotation
                      End Site
                      {
                        OFFSET 2.0404 -0.1441 0.0027
                      }
                    }
                  }
                }
                JOINT LeftHandRing1
                {
                  OFFSET 8.5234 0.597198 -2.0164
                  CHANNELS 3 Zrotation Xrotation Yrotation
                  JOINT LeftHandRing2
                  {
                    OFFSET 3.7188 -0.188293 -0.2328
                    CHANNELS 3 Zrotation Xrotation Yrotation
                    JOINT LeftHandRing3
                    {
                      OFFSET 2.1191 -0.106598 -0.1332
                      CHANNELS 3 Zrotation Xrotation Yrotation
                      End Site
                      {
                        OFFSET 1.8737 -0.2304 -0.0886
                      }
                    }
                  }
                }
                JOINT LeftHandPinky1
                {
                  OFFSET 7.9094 -0.601089 -3.4825
                  CHANNELS 3 Zrotation Xrotation Yrotation
                  JOINT LeftHandPinky2
                  {
                    OFFSET 2.2874 -0.477005 -0.6314
                    CHANNELS 3 Zrotation Xrotation Yrotation
                    JOINT LeftHandPinky3
                    {
                      OFFSET 1.6774 -0.349396 -0.4633
                      CHANNELS 3 Zrotation Xrotation Yrotation
                      End Site
                      {
                        OFFSET 1.4888 -0.4091 -0.3416
                      }
                    }
                  }
                }
                JOINT LeftHandThumb1
                {
                  OFFSET 1.833 -1.3875 1.3896
                  CHANNELS 3 Zrotation Xrotation Yrotation
                  JOINT LeftHandThumb2
                  {
                    OFFSET 3.4129 -1.121 2.5732
                    CHANNELS 3 Zrotation Xrotation Yrotation
                    JOINT LeftHandThumb3
                    {
                      OFFSET 2.2474 -0.804199 1.6192
                      CHANNELS 3 Zrotation Xrotation Yrotation
                      End Site
                      {
                        OFFSET 1.6527 -0.5689 1.1317
                      }
                    }
                  }
                }
              }
            }
          }
        }
        JOINT RightShoulder
        {
          OFFSET -2.2086 21.1115 7.2329
          CHANNELS 3 Zrotation Xrotation Yrotation
          JOINT RightArm
          {
            OFFSET -13.1216 3.0287 -4.9007
            CHANNELS 3 Zrotation Xrotation Yrotation
            JOINT RightForeArm
            {
              OFFSET -27.4081 -0.0973053 -0.2375
              CHANNELS 3 Zrotation Xrotation Yrotation
              JOINT RightHand
              {
                OFFSET -22.8641 0.0664063 -0.1369
                CHANNELS 3 Zrotation Xrotation Yrotation
                JOINT RightHandIndex1
                {
                  OFFSET -8.8614 0.774994 2.4612
                  CHANNELS 3 Zrotation Xrotation Yrotation
                  JOINT RightHandIndex2
                  {
                    OFFSET -3.3146 -0.808304 0.5841
                    CHANNELS 3 Zrotation Xrotation Yrotation
                    JOINT RightHandIndex3
                    {
                      OFFSET -2.2628 -0.552002 0.3989
                      CHANNELS 3 Zrotation Xrotation Yrotation
                      End Site
                      {
                        OFFSET -1.6102 -0.4807 0.2612
                      }
                    }
                  }
                }
                JOINT RightHandMiddle1
                {
                  OFFSET -8.9937 0.894989 0.2143
                  CHANNELS 3 Zrotation Xrotation Yrotation
                  JOINT RightHandMiddle2
                  {
                    OFFSET -4.0984 0.0113983 -0.0242
                    CHANNELS 3 Zrotation Xrotation Yrotation
                    JOINT RightHandMiddle3
                    {
                      OFFSET -2.2716 0.00691223 -0.0138001
                      CHANNELS 3 Zrotation Xrotation Yrotation
                      End Site
                      {
                        OFFSET -2.0404 -0.1441 0.0027
                      }
                    }
                  }
                }
                JOINT RightHandRing1
                {
                  OFFSET -8.5234 0.597198 -2.0164
                  CHANNELS 3 Zrotation Xrotation Yrotation
                  JOINT RightHandRing2
                  {
                    OFFSET -3.7188 -0.188309 -0.2328
                    CHANNELS 3 Zrotation Xrotation Yrotation
                    JOINT RightHandRing3
                    {
                      OFFSET -2.1191 -0.106598 -0.1332
                      CHANNELS 3 Zrotation Xrotation Yrotation
                      End Site
                      {
                        OFFSET -1.8737 -0.2304 -0.0886
                      }
                    }
                  }
                }
                JOINT RightHandPinky1
                {
                  OFFSET -7.9094 -0.601105 -3.4825
                  CHANNELS 3 Zrotation Xrotation Yrotation
                  JOINT RightHandPinky2
                  {
                    OFFSET -2.2874 -0.477005 -0.6314
                    CHANNELS 3 Zrotation Xrotation Yrotation
                    JOINT RightHandPinky3
                    {
                      OFFSET -1.6774 -0.349396 -0.4633
                      CHANNELS 3 Zrotation Xrotation Yrotation
                      End Site
                      {
                        OFFSET -1.4888 -0.4091 -0.3416
                      }
                    }
                  }
                }
                JOINT RightHandThumb1
                {
                  OFFSET -1.833 -1.38751 1.3896
                  CHANNELS 3 Zrotation Xrotation Yrotation
                  JOINT RightHandThumb2
                  {
                    OFFSET -3.41299 -1.12099 2.5732
                    CHANNELS 3 Zrotation Xrotation Yrotation
                    JOINT RightHandThumb3
                    {
                      OFFSET -2.24741 -0.804108 1.6192
                      CHANNELS 3 Zrotation Xrotation Yrotation
                      End Site
                      {
                        OFFSET -1.6527 -0.5689 1.1317
                      }
                    }
                  }
                }
              }
            }
          }
        }
      }
    }
  }
  JOINT RightUpLeg
  {
    OFFSET -9.1966 3.8861 -0.7581
    CHANNELS 3 Zrotation Xrotation Yrotation
    JOINT RightLeg
    {
      OFFSET -0.7359 -41.0265 0
      CHANNELS 3 Zrotation Xrotation Yrotation
      JOINT RightFoot
      {
        OFFSET 0 -40.2855 0
        CHANNELS 3 Zrotation Xrotation Yrotation
        JOINT RightToeBase
        {
          OFFSET 0 -5.6122 11.7359
          CHANNELS 3 Zrotation Xrotation Yrotation
          End Site
          {
            OFFSET 0 0 7.8731
          }
        }
      }
    }
  }
  JOINT LeftUpLeg
  {
    OFFSET 9.1965 3.8864 -0.7581
    CHANNELS 3 Zrotation Xrotation Yrotation
    JOINT LeftLeg
    {
      OFFSET 0.7359 -41.0268 0
      CHANNELS 3 Zrotation Xrotation Yrotation
      JOINT LeftFoot
      {
        OFFSET 0 -40.2855 0
        CHANNELS 3 Zrotation Xrotation Yrotation
        JOINT LeftToeBase
        {
          OFFSET 0 -5.6122 11.7359
          CHANNELS 3 Zrotation Xrotation Yrotation
          End Site
          {
            OFFSET 0 0 7.8731
          }
        }
      }
    }
  }
}
MOTION
Frames:	4
Frame Time:	0.0333333
5.84602e-005 68.8428 3.50346 0 0 -0 0 0 -0 0 0 -0 0 0 -0 0 0 -0 0 0 -0 0 0 -0 0 0 -0 0 0 -0 0 0 -0 0 0 -0 0 0 -0 0 0 -0 0 0 -0 -0.0146107 -8.87603e-005 -2.63497e-007 2.99804e-018 -2.42657e-020 -1.42182e-022 0 0 -0 -0.0187562 -0.001176 5.858e-005 5.06224e-018 3.88251e-019 1.21329e-020 0 0 -0 -0.012269 -0.00324817 0.000675346 -1.74678e-018 3.88251e-019 -0 0 0 -0 0 0 -0 0 0 -0 0 0 -0 0 0 -0 0 0 -0 0 0 -0 0 0 -0 0 0 -0 0 0 -0 0 0 -0 0.0149955 -9.10982e-005 2.64101e-007 -9.69331e-018 1.21329e-020 -4.7394e-023 0 0 -0 0.0189956 -0.00119102 -5.96516e-005 -5.41541e-019 0 2.42657e-020 0 0 -0 0.0122698 -0.00324857 -0.000673756 -2.00796e-019 0 -1.94126e-019 0 0 -0 0 0 -0 0 0 -0 3.39842 1.33031 -0.0637918 -5.65207e-008 0.834868 -0.000436188 -3.39935 -2.16518 -0.0642563 -8.89002e-024 -1.18485e-023 -1.48106e-024 -3.39844 1.35642 0.0640283 -3.18788e-007 0.782166 -0.000588827 3.39931 -2.13858 0.0634662 1.1399e-023 0 -0 
-0.00156222 8.19205 113.525 -0.0122375 0.0122375 180 -0.148711 18.1235 -0.150812 -0.265787 36.2472 -0.271175 -0.265788 36.2472 -0.271175 1.5926e-007 -11.0101 -3.23737e-007 2.93254e-009 -4.00324 -4.58738e-008 54.5829 -55.3716 71.9833 -70.9936 17.3961 -36.2604 54.8425 -4.28124 -102.299 10.6931 -16.5101 15.4284 1.24857e-007 1.70336e-007 -3.07049e-008 1.24857e-007 1.70336e-007 -3.07049e-008 1.24857e-007 1.70335e-007 -3.07049e-008 1.24857e-007 1.70336e-007 -3.07049e-008 -0.0146378 -8.76502e-005 2.48758e-006 1.24857e-007 1.70339e-007 -3.06832e-008 1.24857e-007 1.70336e-007 -3.07049e-008 -0.0187669 -0.00117661 5.74217e-005 1.24856e-007 1.7034e-007 -3.06783e-008 1.24857e-007 1.70336e-007 -3.07049e-008 -0.0122571 -0.0032462 0.000679801 1.24857e-007 1.70338e-007 -3.06902e-008 1.24857e-007 1.70336e-007 -3.07049e-008 1.24857e-007 1.70336e-007 -3.07049e-008 1.24857e-007 1.70335e-007 -3.07049e-008 -30.8519 -34.9242 -61.1352 81.8364 25.3676 36.8376 3.617 -0.249982 109.239 -6.7755 -8.72924 -59.8117 7.15625e-015 3.18055e-015 -3.18055e-015 7.95139e-016 7.95139e-016 -3.18055e-015 -3.18055e-015 2.38542e-015 -0 7.15625e-015 3.18055e-015 -3.18055e-015 0.0149869 -9.39225e-005 -5.9972e-006 6.36111e-015 1.59028e-015 -6.36111e-015 7.15625e-015 3.18055e-015 -3.18055e-015 0.0189731 -0.00118923 -6.30313e-005 -1.59028e-015 -7.95139e-016 -6.36111e-015 7.15625e-015 3.18055e-015 -3.18055e-015 0.0122682 -0.00324866 -0.000678346 -2.38542e-015 -8.74653e-015 -0 7.15625e-015 3.18055e-015 -3.18055e-015 7.95139e-016 7.95139e-016 -3.18055e-015 -3.18055e-015 2.38542e-015 -0 -8.19986 -53.5674 -18.1609 -175.027 25.078 168.779 -7.11239 50.0583 -6.69418 3.18918e-007 1.87106e-008 7.96295e-007 8.19768 -53.5391 18.1304 175.042 25.0946 -168.805 7.10738 50.0474 6.67805 8.19139e-008 -1.67799e-007 2.18088e-007 
-0.00156222 8.19205 113.525 -0.0122375 0.0122375 180 -0.1498 18.4305 -0.153234 -0.266874 36.8614 -0.275738 -0.266874 36.8614 -0.275738 2.99329e-007 -13.5214 9.37463e-007 2.53692e-007 -2.54712 1.39683e-007 58.2917 -55.6277 76.8238 -70.9935 17.4071 -36.2779 54.7957 -4.63413 -102.628 10.7713 -17.7994 16.394 -1.25453e-007 -1.69826e-007 3.1152e-008 -2.64986e-007 1.70079e-007 -1.44381e-006 -1.25453e-007 -1.69826e-007 3.1152e-008 -1.25453e-007 -1.69826e-007 3.1152e-008 -0.0146166 -9.00314e-005 -1.77199e-006 -1.25453e-007 -1.6983e-007 3.11305e-008 -1.25453e-007 -1.69826e-007 3.1152e-008 -0.0187493 -0.00117623 5.84418e-005 -7.92154e-007 -1.62998e-007 -2.55514e-006 -1.25453e-007 -1.69826e-007 3.1152e-008 -0.0122529 -0.0032436 0.000670396 5.42154e-007 -1.76792e-007 2.61747e-006 -1.25453e-007 -1.69826e-007 3.1152e-008 -2.64986e-007 1.70079e-007 -1.44381e-006 -1.25453e-007 -1.69826e-007 3.1152e-008 -32.449 -35.5201 -64.3347 81.8091 25.6063 36.9864 3.50363 -0.0744883 109.888 -6.77549 -8.72924 -59.8116 1.59028e-015 -7.15625e-015 6.36111e-015 1.59028e-015 -6.36111e-015 3.18055e-015 2.38542e-015 -5.56597e-015 -3.18055e-015 1.59028e-015 -7.15625e-015 6.36111e-015 0.0149782 -8.87073e-005 2.47656e-006 -1.63734e-006 6.56167e-007 -6.91871e-007 1.59028e-015 -7.15625e-015 6.36111e-015 0.0190017 -0.00118968 -5.99809e-005 3.18055e-015 1.98785e-014 -1.27222e-014 1.59028e-015 -7.15625e-015 6.36111e-015 0.0122237 -0.00323642 -0.000674807 -1.63761e-006 6.55894e-007 -6.91871e-007 1.59028e-015 -7.15625e-015 6.36111e-015 1.59028e-015 -6.36111e-015 3.18055e-015 2.38542e-015 -5.56597e-015 -3.18055e-015 -8.19985 -53.5674 -18.1609 -175.027 25.078 168.779 -7.11241 50.0583 -6.69417 4.2183e-007 2.69503e-008 7.69295e-007 8.19768 -53.5391 18.1304 175.042 25.0946 -168.805 7.10738 50.0474 6.67805 8.19139e-008 -1.67799e-007 2.18088e-007 
-0.00156222 8.19205 113.525 -0.0122375 0.0122375 180 -0.15086 18.7384 -0.155668 -0.267864 37.4771 -0.280358 -0.267864 37.4771 -0.280359 -7.0014e-006 -16.0458 -5.33222e-007 -4.11369e-009 -1.08835 1.13735e-007 62.0615 -55.7047 81.7304 -70.9933 17.4181 -36.2954 54.7469 -4.98682 -102.956 10.8733 -19.0899 17.3709 -1.73287e-006 4.99674e-007 1.12901e-007 2.51945e-007 3.38737e-007 -6.31877e-008 -6.29863e-008 -8.46843e-008 1.57969e-008 -1.73287e-006 4.99674e-007 1.12901e-007 -0.014615 -8.84354e-005 -3.79724e-006 -1.25972e-007 -1.69373e-007 3.15724e-008 -1.73287e-006 4.99674e-007 1.12901e-007 -0.0187614 -0.00117825 5.23106e-005 -1.25972e-007 -1.69374e-007 3.15674e-008 -1.73287e-006 4.99674e-007 1.12901e-007 -0.0122585 -0.00324514 0.00067288 5.30054e-007 -2.33578e-007 2.67641e-006 -1.73287e-006 4.99674e-007 1.12901e-007 2.51945e-007 3.38737e-007 -6.31877e-008 -6.29863e-008 -8.46843e-008 1.57969e-008 -34.1063 -36.0449 -67.5964 81.7811 25.8449 37.1355 3.38821 0.0997511 110.538 -6.7755 -8.72924 -59.8116 -1.31015e-006 2.56369e-006 2.05338e-006 8.91411e-008 -4.30478e-007 -3.57905e-006 4.30803e-007 1.776e-006 2.69105e-006 -1.31015e-006 2.56369e-006 2.05338e-006 0.0149868 -9.30794e-005 -9.33587e-007 4.30669e-007 1.77635e-006 2.69081e-006 -1.31015e-006 2.56369e-006 2.05338e-006 0.0190467 -0.00119812 -6.06005e-005 4.30658e-007 1.77646e-006 2.69075e-006 -1.31015e-006 2.56369e-006 2.05338e-006 0.0122455 -0.00324606 -0.000680132 4.30758e-007 1.77632e-006 2.69085e-006 -1.31015e-006 2.56369e-006 2.05338e-006 8.91411e-008 -4.30478e-007 -3.57905e-006 4.30803e-007 1.776e-006 2.69105e-006 -8.19985 -53.5674 -18.1609 -175.027 25.078 168.779 -7.11241 50.0583 -6.69417 4.2183e-007 2.69503e-008 7.69295e-007 8.19768 -53.5391 18.1304 175.042 25.0946 -168.805 7.10738 50.0474 6.67805 8.19139e-008 -1.67799e-007 2.18088e-007 
